<svg id="Layer_1" xmlns="http://www.w3.org/2000/svg" width="500" height="100" viewBox="0 0 400 400">
    <style>
        .st0 {
        fill: none;
        }
    </style>
    <g class="alas">
        <g class="alas_rojas">
            <path class="st0 roja1"
                  d="M108.9 279.6s7.5 10.9 21.4 10.9c28.3 0 41.2-31 71.6-103.6 19.3-57.7 34-84.5 52.5-87.4 0 0-36.3-6.9-65.4 63.1-19.1 46-28.9 114-60 118.8-8.5 1.1-7-1.8-10.7-3-2.7-.7-6.6 2.3-9.4 1.2z"/>
            <path class="st0 roja2"
                  d="M231.3 119.7s11.6-14.2 17.2-13.6c12.3 1.3 27.6 23.1 32.2 30.2 0 0-8.5-25.9-20.4-32-10.1-5.2-19 3-19 3s-8.3 9.6-10 12.4z"/>
        </g>
        <g class="alas_amarillas">
            <path class="st0 amarilla1_"
                  d="M122.9 285s8.1 11.1 22 10.6c18.6-.6 41-22.3 71.3-94.9 19.7-42 33-60.2 50-60.6 0 0-35.3-14.2-68.4 55-21.5 44.9-33.9 87.4-55.6 92.3-5.9 1.2-6.1-1.2-9.9-2.4-2.7-.7-6.7 1.1-9.4 0z"/>
            <path class="st0 amarilla2_"
                  d="M241.9 156.7s9.8-10.8 15.5-10.9c13.8-.4 28.9 26.6 33.7 33.9 0 0-10.9-28.6-21.5-34.8-9.4-5.5-17.9 2-17.9 2s-8.1 7-9.8 9.8z"/>

        </g>
        <g class="alas_verdes">
            <path class="st0 verde1_"
                  d="M138.3 291s6.6 9.6 19.4 9.6c14.3 0 30.2-15.8 52.7-52.7 19.3-35.7 26.7-45.8 41.8-47.2 0 0-24.3-8.7-51.3 33.2s-33.9 57.1-49 59.5c-2.8.3-4-2-5.8-2.8-2.1-.9-5.1 1-7.8.4z"/>
            <path class="st0 verde2_"
                  d="M234.4 211.7s8.1-7.3 11.9-7c8.2.9 16.8 18.3 19.8 23.6 0 0-4.7-19.6-11.9-23.5-6.6-3.6-11.6.4-11.6.4s-7.1 4.7-8.2 6.5z"/>
        </g>
    </g>

    <g class="loading_boa">

        <path class="avion" d="M327.4 91.4C296.3 56 250.7 33.7 200 33.7c-93.6 0-169.7 76-169.7 169.7S106.4 373 200 373c2.8 0 5.2-2.2 5.2-5.1 0-2.8-2.2-5.2-5.1-5.2h-.1c-88.1 0-159.4-71.3-159.4-159.4S111.9 44 200 44c48 0 90.9 21.2 120.1 54.7m44.4 99.5c-2.8 0-5.1 2.3-5.1 5.1s2.3 5.1 5.1 5.1 5.1-2.3 5.1-5.1c.1-2.8-2.2-5.1-5.1-5.1zm-1.6 21.5c-2.5.1-4.6 2-4.9 4.5-.4 2.8 1.6 5.4 4.4 5.8 2.8.4 5.4-1.6 5.8-4.4.4-2.8-1.6-5.4-4.4-5.8-.3-.1-.6-.1-.9-.1zm-4 21.1c-2.3 0-4.3 1.6-4.9 3.8-.7 2.7.9 5.6 3.6 6.3 2.7.7 5.6-.9 6.3-3.6.7-2.7-.9-5.6-3.6-6.3-.5-.1-1-.2-1.4-.2zm-6.8 20.4c-2.1 0-4 1.2-4.9 3.2-1.1 2.6.2 5.6 2.8 6.7 2.6 1.1 5.6-.2 6.7-2.8 1.1-2.6-.2-5.6-2.8-6.7-.5-.3-1.1-.4-1.8-.4zm-9.9 19.3c-1.7.1-3.3 1-4.2 2.6-1.4 2.5-.6 5.6 1.9 7 2.5 1.4 5.6.6 7-1.9 1.4-2.5.6-5.6-1.9-7-.8-.5-1.8-.7-2.8-.7zm-11.8 17.9c-1.6 0-3 .8-4 2-1.7 2.3-1.3 5.5.9 7.2 2.3 1.7 5.5 1.3 7.2-.9 1.7-2.3 1.3-5.5-1-7.2-.8-.8-1.9-1.2-3.1-1.1zm-14 16.2c-1.4 0-2.7.5-3.7 1.5-2 2-2 5.3 0 7.3s5.3 2 7.3 0 2-5.3 0-7.3c-1-1-2.3-1.5-3.6-1.5zm-16.2 14.1h-.4c-1 .1-2 .4-2.9 1.1-2.3 1.7-2.7 5-1 7.2 1.7 2.3 5 2.7 7.2 1 2.3-1.7 2.7-5 1-7.2-.8-1.3-2.3-2.1-3.9-2.1zm-18.1 12c-.9 0-1.7.3-2.5.7-2.5 1.4-3.3 4.6-1.9 7 1.4 2.5 4.6 3.3 7 1.9 2.5-1.4 3.3-4.6 1.9-7-.8-1.7-2.6-2.7-4.5-2.6zm-19.1 9.5c-.7 0-1.4.1-2 .4-2.6 1.1-3.9 4.1-2.8 6.7 1.1 2.6 4.1 3.9 6.7 2.8 2.6-1.1 3.9-4.1 2.8-6.7-.8-1.9-2.6-3.2-4.7-3.2zm-20.2 6.9c-.5 0-1 0-1.5.2-2.7.7-4.4 3.6-3.6 6.3.7 2.7 3.6 4.4 6.3 3.6 2.7-.7 4.4-3.6 3.6-6.3-.6-2.1-2.6-3.7-4.8-3.8zm-21.5 4.2h-.5c-2.8.4-4.8 2.9-4.4 5.8.4 2.8 3 4.8 5.8 4.4 2.8-.4 4.8-3 4.4-5.8-.4-2.5-2.7-4.4-5.3-4.4zM362.9 79.8l-19.7 25.6-7.3-7.8 2.3-16.2-4.1-4.4-8.4 11.8-11 10.3-12.3 7.7 4.1 4.4 16.3-1.3 7.3 7.8-26.7 18.2 1 1.1 4 4.2 37.2-7.1 14.4 15.3c3.4 3.6 9.1 3.7 12.6.4 3.6-3.4 3.7-9.1.4-12.6l-14.4-15.3 9.2-36.8-4.9-5.3zm.2 3.9l2 2.1-9.2 36.8 15.4 16.3c2.4 2.6 2.3 6.6-.3 9s-6.6 2.3-9-.3l-15.4-16.3-37.2 7.1-2-2.1 26.7-18.2-10.2-10.8-16.3 1.3-1.1-1.2 8.8-5.5c0 .1.1.1.1.2.5.5 1.3.5 1.8.1s.5-1.3.1-1.8l9.3-8.8c.5.5 1.3.5 1.8.1s.5-1.3.1-1.8l-.2-.2 6-8.5 1.1 1.2-2.3 16.2 10.2 10.8 19.8-25.7zm-31.2 9.8c-.5-.5-1.3-.5-1.8-.1-.5.5-.5 1.3-.1 1.8.5.5 1.3.5 1.8.1s.6-1.3.1-1.8zm15.8 16.7c-.5-.5-1.3-.5-1.8-.1-.5.5-.5 1.3-.1 1.8.5.5 1.3.5 1.8.1s.6-1.3.1-1.8zm3.5 3.7c-.5-.5-1.3-.5-1.8-.1s-.5 1.3-.1 1.8c.5.5 1.3.5 1.8.1.6-.4.6-1.2.1-1.8zm3.5 3.8c-.5-.5-1.3-.5-1.8-.1s-.5 1.3-.1 1.8c.5.5 1.3.5 1.8.1s.6-1.3.1-1.8zm14.7 23c-.5-.5-1.3-.5-1.8-.1-.5.5-.5 1.3-.1 1.8.5.5 1.3.5 1.8.1.5-.5.6-1.3.1-1.8zm-3.7 3.5c-.5-.5-1.3-.5-1.8-.1-.5.5-.5 1.3-.1 1.8.5.5 1.3.5 1.8.1.5-.5.6-1.3.1-1.8zM320.8 104c-.5-.5-1.3-.5-1.8-.1-.5.5-.5 1.3-.1 1.8.5.5 1.3.5 1.8.1s.5-1.3.1-1.8zm15.7 16.8c-.5-.5-1.3-.5-1.8-.1s-.5 1.3-.1 1.8c.5.5 1.3.5 1.8.1.6-.5.6-1.3.1-1.8zm3.5 3.7c-.5-.5-1.3-.5-1.8-.1s-.5 1.3-.1 1.8c.5.5 1.3.5 1.8.1s.6-1.3.1-1.8zm3.6 3.7c-.5-.5-1.3-.5-1.8-.1-.5.5-.5 1.3-.1 1.8.5.5 1.3.5 1.8.1.5-.5.5-1.3.1-1.8z"/>


    </g>

</svg>