<?xml version="1.0"?>
<svg xmlns="http://www.w3.org/2000/svg" viewBox="0 0 80 80">
    <path style="line-height:normal;text-indent:0;text-align:start;text-decoration-line:none;text-decoration-style:solid;text-decoration-color:#000;text-transform:none;block-progression:tb;isolation:auto;mix-blend-mode:normal" d="M 48.917969 7.0058594 C 47.647667 7.0058594 46.375612 7.4876691 45.412109 8.4511719 L 8.4511719 45.412109 C 6.5241664 47.339115 6.5241664 50.49487 8.4511719 52.421875 L 27.578125 71.548828 C 28.684848 72.655551 30.194708 73.105916 31.646484 72.941406 A 1.0001 1.0001 0 0 0 32 73 L 48 73 A 1.0001 1.0001 0 1 0 48 71 L 35.136719 71 L 71.548828 34.587891 C 73.475834 32.660885 73.475834 29.507084 71.548828 27.580078 L 52.421875 8.4511719 C 51.458372 7.4876691 50.188271 7.0058594 48.917969 7.0058594 z M 48.917969 8.9941406 C 49.672167 8.9941406 50.426315 9.2837371 51.007812 9.8652344 L 51.009766 9.8671875 A 1 1 0 0 0 51 10 A 1 1 0 0 0 52 11 A 1 1 0 0 0 52.132812 10.990234 L 54.009766 12.867188 A 1 1 0 0 0 54 13 A 1 1 0 0 0 55 14 A 1 1 0 0 0 55.132812 13.990234 L 57.009766 15.867188 A 1 1 0 0 0 57 16 A 1 1 0 0 0 58 17 A 1 1 0 0 0 58.132812 16.990234 L 60.009766 18.867188 A 1 1 0 0 0 60 19 A 1 1 0 0 0 61 20 A 1 1 0 0 0 61.130859 19.990234 L 63.009766 21.867188 A 1 1 0 0 0 63 22 A 1 1 0 0 0 64 23 A 1 1 0 0 0 64.130859 22.990234 L 66.009766 24.869141 A 1 1 0 0 0 66 25 A 1 1 0 0 0 67 26 A 1 1 0 0 0 67.130859 25.990234 L 69.009766 27.869141 A 1 1 0 0 0 69 28 A 1 1 0 0 0 70 29 A 1 1 0 0 0 70.130859 28.990234 L 70.134766 28.994141 C 71.253778 30.113153 71.284377 31.865826 70.25 33.033203 A 1 1 0 0 0 70 33 A 1 1 0 0 0 69 34 A 1 1 0 0 0 69.039062 34.269531 L 67.271484 36.037109 A 1 1 0 0 0 67 36 A 1 1 0 0 0 66 37 A 1 1 0 0 0 66.039062 37.269531 L 64.271484 39.037109 A 1 1 0 0 0 64 39 A 1 1 0 0 0 63 40 A 1 1 0 0 0 63.039062 40.269531 L 61.271484 42.037109 A 1 1 0 0 0 61 42 A 1 1 0 0 0 60 43 A 1 1 0 0 0 60.039062 43.269531 L 58.271484 45.037109 A 1 1 0 0 0 58 45 A 1 1 0 0 0 57 46 A 1 1 0 0 0 57.039062 46.269531 L 55.271484 48.037109 A 1 1 0 0 0 55 48 A 1 1 0 0 0 54 49 A 1 1 0 0 0 54.039062 49.269531 L 52.271484 51.037109 A 1 1 0 0 0 52 51 A 1 1 0 0 0 51 52 A 1 1 0 0 0 51.039062 52.269531 L 33.173828 70.134766 C 32.010834 71.29776 30.155182 71.29776 28.992188 70.134766 L 9.8652344 51.007812 C 8.7022399 49.844819 8.7022399 47.989166 9.8652344 46.826172 L 27.728516 28.962891 A 1 1 0 0 0 28 29 A 1 1 0 0 0 29 28 A 1 1 0 0 0 28.960938 27.730469 L 30.728516 25.962891 A 1 1 0 0 0 31 26 A 1 1 0 0 0 32 25 A 1 1 0 0 0 31.960938 24.730469 L 33.728516 22.962891 A 1 1 0 0 0 34 23 A 1 1 0 0 0 35 22 A 1 1 0 0 0 34.960938 21.730469 L 36.728516 19.962891 A 1 1 0 0 0 37 20 A 1 1 0 0 0 38 19 A 1 1 0 0 0 37.960938 18.730469 L 39.728516 16.962891 A 1 1 0 0 0 40 17 A 1 1 0 0 0 41 16 A 1 1 0 0 0 40.960938 15.730469 L 42.728516 13.962891 A 1 1 0 0 0 43 14 A 1 1 0 0 0 44 13 A 1 1 0 0 0 43.960938 12.730469 L 45.728516 10.962891 A 1 1 0 0 0 46 11 A 1 1 0 0 0 47 10 A 1 1 0 0 0 46.966797 9.75 C 47.527853 9.2530831 48.220671 8.9941406 48.917969 8.9941406 z M 49 12 A 1 1 0 0 0 48 13 A 1 1 0 0 0 49 14 A 1 1 0 0 0 50 13 A 1 1 0 0 0 49 12 z M 46 15 A 1 1 0 0 0 45 16 A 1 1 0 0 0 46 17 A 1 1 0 0 0 47 16 A 1 1 0 0 0 46 15 z M 52 15 A 1 1 0 0 0 51 16 A 1 1 0 0 0 52 17 A 1 1 0 0 0 53 16 A 1 1 0 0 0 52 15 z M 43 18 A 1 1 0 0 0 42 19 A 1 1 0 0 0 43 20 A 1 1 0 0 0 44 19 A 1 1 0 0 0 43 18 z M 49 18 A 1 1 0 0 0 48 19 A 1 1 0 0 0 49 20 A 1 1 0 0 0 50 19 A 1 1 0 0 0 49 18 z M 55 18 A 1 1 0 0 0 54 19 A 1 1 0 0 0 55 20 A 1 1 0 0 0 56 19 A 1 1 0 0 0 55 18 z M 40 21 A 1 1 0 0 0 39 22 A 1 1 0 0 0 40 23 A 1 1 0 0 0 41 22 A 1 1 0 0 0 40 21 z M 46 21 A 1 1 0 0 0 45 22 A 1 1 0 0 0 46 23 A 1 1 0 0 0 47 22 A 1 1 0 0 0 46 21 z M 52 21 A 1 1 0 0 0 51 22 A 1 1 0 0 0 52 23 A 1 1 0 0 0 53 22 A 1 1 0 0 0 52 21 z M 58 21 A 1 1 0 0 0 57 22 A 1 1 0 0 0 58 23 A 1 1 0 0 0 59 22 A 1 1 0 0 0 58 21 z M 37 24 A 1 1 0 0 0 36 25 A 1 1 0 0 0 37 26 A 1 1 0 0 0 38 25 A 1 1 0 0 0 37 24 z M 43 24 A 1 1 0 0 0 42 25 A 1 1 0 0 0 43 26 A 1 1 0 0 0 44 25 A 1 1 0 0 0 43 24 z M 49 24 A 1 1 0 0 0 48 25 A 1 1 0 0 0 49 26 A 1 1 0 0 0 50 25 A 1 1 0 0 0 49 24 z M 55 24 A 1 1 0 0 0 54 25 A 1 1 0 0 0 55 26 A 1 1 0 0 0 56 25 A 1 1 0 0 0 55 24 z M 61 24 A 1 1 0 0 0 60 25 A 1 1 0 0 0 61 26 A 1 1 0 0 0 62 25 A 1 1 0 0 0 61 24 z M 34 27 A 1 1 0 0 0 33 28 A 1 1 0 0 0 34 29 A 1 1 0 0 0 35 28 A 1 1 0 0 0 34 27 z M 40 27 A 1 1 0 0 0 39 28 A 1 1 0 0 0 40 29 A 1 1 0 0 0 41 28 A 1 1 0 0 0 40 27 z M 46 27 A 1 1 0 0 0 45 28 A 1 1 0 0 0 46 29 A 1 1 0 0 0 47 28 A 1 1 0 0 0 46 27 z M 52 27 A 1 1 0 0 0 51 28 A 1 1 0 0 0 52 29 A 1 1 0 0 0 53 28 A 1 1 0 0 0 52 27 z M 58 27 A 1 1 0 0 0 57 28 A 1 1 0 0 0 58 29 A 1 1 0 0 0 59 28 A 1 1 0 0 0 58 27 z M 64 27 A 1 1 0 0 0 63 28 A 1 1 0 0 0 64 29 A 1 1 0 0 0 65 28 A 1 1 0 0 0 64 27 z M 31 30 A 1 1 0 0 0 30 31 A 1 1 0 0 0 31 32 A 1 1 0 0 0 32 31 A 1 1 0 0 0 31 30 z M 37 30 A 1 1 0 0 0 36 31 A 1 1 0 0 0 37 32 A 1 1 0 0 0 38 31 A 1 1 0 0 0 37 30 z M 43 30 A 1 1 0 0 0 42 31 A 1 1 0 0 0 43 32 A 1 1 0 0 0 44 31 A 1 1 0 0 0 43 30 z M 49 30 A 1 1 0 0 0 48 31 A 1 1 0 0 0 49 32 A 1 1 0 0 0 50 31 A 1 1 0 0 0 49 30 z M 55 30 A 1 1 0 0 0 54 31 A 1 1 0 0 0 55 32 A 1 1 0 0 0 56 31 A 1 1 0 0 0 55 30 z M 61 30 A 1 1 0 0 0 60 31 A 1 1 0 0 0 61 32 A 1 1 0 0 0 62 31 A 1 1 0 0 0 61 30 z M 67 30 A 1 1 0 0 0 66 31 A 1 1 0 0 0 67 32 A 1 1 0 0 0 68 31 A 1 1 0 0 0 67 30 z M 34 33 A 1 1 0 0 0 33 34 A 1 1 0 0 0 34 35 A 1 1 0 0 0 35 34 A 1 1 0 0 0 34 33 z M 40 33 A 1 1 0 0 0 39 34 A 1 1 0 0 0 40 35 A 1 1 0 0 0 41 34 A 1 1 0 0 0 40 33 z M 46 33 A 1 1 0 0 0 45 34 A 1 1 0 0 0 46 35 A 1 1 0 0 0 47 34 A 1 1 0 0 0 46 33 z M 52 33 A 1 1 0 0 0 51 34 A 1 1 0 0 0 52 35 A 1 1 0 0 0 53 34 A 1 1 0 0 0 52 33 z M 58 33 A 1 1 0 0 0 57 34 A 1 1 0 0 0 58 35 A 1 1 0 0 0 59 34 A 1 1 0 0 0 58 33 z M 64 33 A 1 1 0 0 0 63 34 A 1 1 0 0 0 64 35 A 1 1 0 0 0 65 34 A 1 1 0 0 0 64 33 z M 37 36 A 1 1 0 0 0 36 37 A 1 1 0 0 0 37 38 A 1 1 0 0 0 38 37 A 1 1 0 0 0 37 36 z M 43 36 A 1 1 0 0 0 42 37 A 1 1 0 0 0 43 38 A 1 1 0 0 0 44 37 A 1 1 0 0 0 43 36 z M 49 36 A 1 1 0 0 0 48 37 A 1 1 0 0 0 49 38 A 1 1 0 0 0 50 37 A 1 1 0 0 0 49 36 z M 55 36 A 1 1 0 0 0 54 37 A 1 1 0 0 0 55 38 A 1 1 0 0 0 56 37 A 1 1 0 0 0 55 36 z M 61 36 A 1 1 0 0 0 60 37 A 1 1 0 0 0 61 38 A 1 1 0 0 0 62 37 A 1 1 0 0 0 61 36 z M 40 39 A 1 1 0 0 0 39 40 A 1 1 0 0 0 40 41 A 1 1 0 0 0 41 40 A 1 1 0 0 0 40 39 z M 46 39 A 1 1 0 0 0 45 40 A 1 1 0 0 0 46 41 A 1 1 0 0 0 47 40 A 1 1 0 0 0 46 39 z M 52 39 A 1 1 0 0 0 51 40 A 1 1 0 0 0 52 41 A 1 1 0 0 0 53 40 A 1 1 0 0 0 52 39 z M 58 39 A 1 1 0 0 0 57 40 A 1 1 0 0 0 58 41 A 1 1 0 0 0 59 40 A 1 1 0 0 0 58 39 z M 43 42 A 1 1 0 0 0 42 43 A 1 1 0 0 0 43 44 A 1 1 0 0 0 44 43 A 1 1 0 0 0 43 42 z M 49 42 A 1 1 0 0 0 48 43 A 1 1 0 0 0 49 44 A 1 1 0 0 0 50 43 A 1 1 0 0 0 49 42 z M 55 42 A 1 1 0 0 0 54 43 A 1 1 0 0 0 55 44 A 1 1 0 0 0 56 43 A 1 1 0 0 0 55 42 z M 46 45 A 1 1 0 0 0 45 46 A 1 1 0 0 0 46 47 A 1 1 0 0 0 47 46 A 1 1 0 0 0 46 45 z M 52 45 A 1 1 0 0 0 51 46 A 1 1 0 0 0 52 47 A 1 1 0 0 0 53 46 A 1 1 0 0 0 52 45 z M 49 48 A 1 1 0 0 0 48 49 A 1 1 0 0 0 49 50 A 1 1 0 0 0 50 49 A 1 1 0 0 0 49 48 z M 52 71 A 1 1 0 0 0 51 72 A 1 1 0 0 0 52 73 A 1 1 0 0 0 53 72 A 1 1 0 0 0 52 71 z M 56 71 A 1 1 0 0 0 55 72 A 1 1 0 0 0 56 73 A 1 1 0 0 0 57 72 A 1 1 0 0 0 56 71 z M 61 71 A 1 1 0 0 0 60 72 A 1 1 0 0 0 61 73 A 1 1 0 0 0 62 72 A 1 1 0 0 0 61 71 z"/>
</svg>
