<?xml version="1.0" encoding="utf-8"?>
<!-- Generator: Adobe Illustrator 19.2.1, SVG Export Plug-In . SVG Version: 6.00 Build 0)  -->
<svg version="1.1" id="Layer_1" xmlns="http://www.w3.org/2000/svg" xmlns:xlink="http://www.w3.org/1999/xlink" x="0px" y="0px"
	 viewBox="0 0 30 11.5" style="enable-background:new 0 0 30 11.5;" xml:space="preserve">
<style type="text/css">
	.st0{fill:#F78F8F;}
	.st1{fill:#C74343;}
	.st2{fill:#FFFFFF;}
	.st3{fill:#8BB7F0;}
	.st4{fill:#4E7AB5;}
</style>
<g>
	<g>
		<rect x="7" y="0.2" class="st0" width="16" height="11.1"/>
		<path class="st1" d="M22.8,0.4v10.7H7.2V0.4H22.8 M23.2,0H6.8v11.5h16.4V0L23.2,0z"/>
	</g>
	<rect x="11.7" y="1.3" class="st2" width="11.1" height="0.8"/>
	<rect x="11.7" y="3.3" class="st2" width="11.1" height="0.8"/>
	<rect x="7.2" y="7.4" class="st2" width="15.6" height="0.8"/>
	<rect x="7.2" y="5.4" class="st2" width="15.6" height="0.8"/>
	<rect x="7.2" y="9.5" class="st2" width="15.6" height="0.8"/>
	<g>
		<rect x="7" y="0.2" class="st3" width="7.8" height="5.7"/>
		<path class="st4" d="M14.6,0.4v5.3H7.2V0.4H14.6 M15,0H6.8v6.1H15V0L15,0z"/>
	</g>
	<polygon class="st2" points="7.8,0.4 8,0.8 8.4,0.9 8.1,1.2 8.2,1.7 7.8,1.5 7.4,1.7 7.5,1.2 7.2,0.9 7.6,0.8 	"/>
	<polygon class="st2" points="9.1,1.7 9.2,2.1 9.7,2.1 9.4,2.5 9.4,2.9 9.1,2.7 8.7,2.9 8.7,2.5 8.4,2.1 8.9,2.1 	"/>
	<polygon class="st2" points="10.3,0.4 10.5,0.8 10.9,0.9 10.6,1.2 10.7,1.7 10.3,1.5 9.9,1.7 10,1.2 9.7,0.9 10.1,0.8 	"/>
	<polygon class="st2" points="11.5,1.7 11.7,2.1 12.1,2.1 11.8,2.5 11.9,2.9 11.5,2.7 11.1,2.9 11.2,2.5 10.9,2.1 11.3,2.1 	"/>
	<polygon class="st2" points="12.7,0.4 12.9,0.8 13.4,0.9 13.1,1.2 13.1,1.7 12.7,1.5 12.4,1.7 12.4,1.2 12.1,0.9 12.6,0.8 	"/>
	<polygon class="st2" points="7.8,2.9 8,3.3 8.4,3.4 8.1,3.7 8.2,4.1 7.8,3.9 7.4,4.1 7.5,3.7 7.2,3.4 7.6,3.3 	"/>
	<polygon class="st2" points="10.3,2.9 10.5,3.3 10.9,3.4 10.6,3.7 10.7,4.1 10.3,3.9 9.9,4.1 10,3.7 9.7,3.4 10.1,3.3 	"/>
	<polygon class="st2" points="12.7,2.9 12.9,3.3 13.3,3.4 13,3.7 13.1,4.1 12.7,3.9 12.4,4.1 12.4,3.7 12.1,3.4 12.5,3.3 	"/>
	<polygon class="st2" points="9.1,4.1 9.2,4.5 9.7,4.6 9.4,4.9 9.4,5.4 9.1,5.1 8.7,5.4 8.7,4.9 8.4,4.6 8.9,4.5 	"/>
	<polygon class="st2" points="11.5,4.1 11.7,4.5 12.1,4.6 11.8,4.9 11.9,5.4 11.5,5.1 11.1,5.4 11.2,4.9 10.9,4.6 11.3,4.5 	"/>
	<polygon class="st2" points="14,4.1 14.2,4.5 14.6,4.6 14.3,4.9 14.4,5.4 14,5.1 13.6,5.4 13.7,4.9 13.4,4.6 13.8,4.5 	"/>
	<polygon class="st2" points="14,1.7 14.2,2.1 14.6,2.1 14.3,2.5 14.4,2.9 14,2.7 13.6,2.9 13.7,2.5 13.4,2.1 13.8,2.1 	"/>
</g>
</svg>
