<?xml version="1.0" encoding="utf-8"?>
<!-- Generator: Adobe Illustrator 19.2.1, SVG Export Plug-In . SVG Version: 6.00 Build 0)  -->
<svg version="1.1" id="Layer_1" xmlns="http://www.w3.org/2000/svg" xmlns:xlink="http://www.w3.org/1999/xlink" x="0px" y="0px"
	 viewBox="0 0 30 11.5" style="enable-background:new 0 0 30 11.5;" xml:space="preserve">
<style type="text/css">
	.st0{fill:#99C99E;}
	.st1{fill:#5E9C76;}
	.st2{fill:#FFEEA3;}
	.st3{fill:#FFFFFF;}
	.st4{fill:#A3B7CC;}
	.st5{fill:#8BB7F0;}
	.st6{fill:#4E7AB5;}
</style>
<g>
	<g>
		<rect x="7.5" y="0.2" class="st0" width="15" height="11.1"/>
		<path class="st1" d="M22.3,0.4v10.8H7.7V0.4H22.3 M22.7,0H7.3v11.5h15.4V0L22.7,0z"/>
	</g>
	<g>
		<polygon class="st2" points="8.5,5.8 15,1.3 21.5,5.8 15,10.2 		"/>
		<path class="st1" d="M15,1.5l6.1,4.2L15,10L8.9,5.8L15,1.5 M15,1.1l-0.2,0.1L8.6,5.5L8.2,5.8l0.5,0.3l6.2,4.2l0.2,0.1l0.2-0.1
			l6.2-4.2l0.5-0.3l-0.5-0.3l-6.2-4.2L15,1.1L15,1.1z"/>
	</g>
	<g>
		<path class="st3" d="M15,8.3c-1.4,0-2.5-1.1-2.5-2.5s1.1-2.5,2.5-2.5s2.5,1.1,2.5,2.5S16.4,8.3,15,8.3z"/>
		<path class="st4" d="M15,3.5c1.3,0,2.3,1,2.3,2.3s-1,2.3-2.3,2.3s-2.3-1-2.3-2.3S13.7,3.5,15,3.5 M15,3.1c-1.5,0-2.7,1.2-2.7,2.7
			s1.2,2.7,2.7,2.7s2.7-1.2,2.7-2.7S16.5,3.1,15,3.1L15,3.1z"/>
	</g>
	<g>
		<g>
			<path class="st5" d="M15,8.3c-1.4,0-2.5-1.1-2.5-2.5c0-0.1,0-0.1,0-0.2c1.8,0,2.9,0.2,4.6,1.5C16.7,7.8,15.9,8.3,15,8.3z
				 M17.5,5.9c-1.7-1.2-2.9-1.5-4.6-1.5c0.4-0.7,1.2-1.2,2.1-1.2c1.4,0,2.5,1.1,2.5,2.5C17.5,5.8,17.5,5.9,17.5,5.9z"/>
			<path class="st6" d="M15,3.5c1.2,0,2.2,0.9,2.3,2.1c-1.4-1-2.6-1.3-4-1.3C13.7,3.8,14.3,3.5,15,3.5 M12.7,5.8
				c1.6,0,2.6,0.2,4.2,1.4c-0.4,0.6-1.1,0.9-1.8,0.9C13.7,8.1,12.7,7,12.7,5.8C12.7,5.8,12.7,5.8,12.7,5.8 M15,3.1
				c-1.5,0-2.7,1.2-2.7,2.7s1.2,2.7,2.7,2.7c1,0,1.9-0.6,2.4-1.4c0,0,0,0,0,0c-1.9-1.5-3-1.7-5-1.7c0-0.3,0.1-0.5,0.2-0.8
				c1.8,0,3.2,0.2,5.1,1.7c0,0,0,0,0,0c0-0.2,0-0.3,0-0.5C17.7,4.3,16.5,3.1,15,3.1L15,3.1z"/>
		</g>
		<g>
			<path class="st5" d="M17.4,7.1c0.1-0.1,0.1-0.2,0.2-0.3C17.5,6.8,17.4,6.9,17.4,7.1z"/>
			<path class="st6" d="M17.5,6.7c0,0.1-0.1,0.2-0.1,0.3C17.4,6.9,17.5,6.8,17.5,6.7L17.5,6.7z M17.4,7C17.4,7,17.4,7,17.4,7
				C17.4,7,17.4,7,17.4,7L17.4,7z"/>
		</g>
		<g>
			<path class="st5" d="M17.6,6.3c0,0.1-0.1,0.2-0.1,0.4C17.6,6.5,17.6,6.4,17.6,6.3z"/>
			<path class="st6" d="M17.6,6.3C17.6,6.3,17.6,6.3,17.6,6.3C17.6,6.3,17.6,6.3,17.6,6.3L17.6,6.3z M17.6,6.3L17.6,6.3L17.6,6.3
				L17.6,6.3z M17.6,6.3C17.6,6.3,17.6,6.3,17.6,6.3C17.6,6.3,17.6,6.3,17.6,6.3L17.6,6.3z M17.6,6.3C17.6,6.3,17.6,6.3,17.6,6.3
				C17.6,6.3,17.6,6.3,17.6,6.3L17.6,6.3z M17.6,6.3C17.6,6.3,17.6,6.3,17.6,6.3C17.6,6.3,17.6,6.3,17.6,6.3L17.6,6.3z M17.6,6.3
				c0,0.1-0.1,0.2-0.1,0.4C17.6,6.5,17.6,6.4,17.6,6.3L17.6,6.3z"/>
		</g>
	</g>
	<circle class="st3" cx="16" cy="7.1" r="0.2"/>
	<circle class="st3" cx="15.2" cy="7.5" r="0.2"/>
	<circle class="st3" cx="13.3" cy="6.3" r="0.2"/>
</g>
</svg>
