<?xml version="1.0" encoding="utf-8"?>
<!-- Generator: Adobe Illustrator 19.2.1, SVG Export Plug-In . SVG Version: 6.00 Build 0)  -->
<svg version="1.1" id="Layer_1" xmlns="http://www.w3.org/2000/svg" xmlns:xlink="http://www.w3.org/1999/xlink" x="0px" y="0px"
	 viewBox="0 0 880 201" style="enable-background:new 0 0 880 201;" xml:space="preserve">
<style type="text/css">

</style>
<g id="Layer_1_1_">
	<g>
		<g>
			<line class="st0" x1="112" y1="51.8" x2="123.1" y2="51.8"/>
		</g>
		<g>
			<line class="st0" x1="117.6" y1="46.3" x2="117.6" y2="57.4"/>
		</g>
		<g>
			<path class="st1" d="M134.6,33l-11.9-0.6c-0.1,0-0.3,0-0.4,0.1l-6.5,3.5c-0.2,0.1-0.4,0.3-0.4,0.5c-0.1,0.2,0,0.4,0.2,0.6
				l3.4,4.1c0.1,0,0.1-0.1,0.1-0.1L134.6,33z"/>
		</g>
		<g>
			<path class="st1" d="M158.1,28.7L158.1,28.7c-0.5-0.9-1.5-2-3.9-2c-2.5,0-5.2,1.2-5.4,1.2c-6.7,2.6-37.9,19.1-37.9,19.1l-7.5-4
				c-0.2-0.1-0.5-0.1-0.7,0l-5.2,2.8c-0.2,0.1-0.4,0.3-0.4,0.6c0,0.2,0.1,0.5,0.2,0.7l12.9,11.1c0.2,0.2,0.6,0.2,0.9,0.1l12.6-6.5
				l1.9,13.4c0.1,0.2,0.2,0.4,0.4,0.6c0.1,0.1,0.2,0.1,0.4,0.1c0.1,0,0.2,0,0.4-0.1c1.4-0.7,2.2-1.2,3-1.6s1.7-0.9,3-1.7
				c0.1-0.1,0.2-0.2,0.3-0.4l8.9-19.9l9.2-4.8C155.4,35.1,159.5,31.8,158.1,28.7L158.1,28.7z"/>
		</g>
	</g>
	<g>
		<path class="st2" d="M75.8,96.9c-9.1,0-16.4-7.4-16.4-16.4c0-9.1,7.4-16.4,16.4-16.4c9.1,0,16.4,7.4,16.4,16.4
			C92.2,89.6,84.8,96.9,75.8,96.9z M75.8,67.8c-7,0-12.7,5.7-12.7,12.7s5.7,12.7,12.7,12.7s12.7-5.7,12.7-12.7
			C88.5,73.5,82.8,67.8,75.8,67.8z"/>
	</g>
	<g>
		<rect x="90.5" y="78.9" class="st2" width="73.9" height="3.7"/>
	</g>
	<g>
		<rect x="98.5" y="70.3" class="st1" width="58.5" height="1.2"/>
	</g>
</g>
<g id="Layer_2">
	<g>
		<rect x="164.4" y="78.9" class="st2" width="555.4" height="3.7"/>
	</g>
</g>
<g id="Layer_3">
	<g>
		<g>
			<path class="st2" d="M808,96.9c-9.1,0-16.4-7.4-16.4-16.4c0-9.1,7.4-16.4,16.4-16.4c9.1,0,16.4,7.4,16.4,16.4
				C824.4,89.6,817.1,96.9,808,96.9z M808,67.8c-7,0-12.7,5.7-12.7,12.7S801,93.2,808,93.2s12.7-5.7,12.7-12.7
				C820.8,73.5,815,67.8,808,67.8z"/>
		</g>
		<g>
			<rect x="719.8" y="78.9" class="st2" width="73.9" height="3.7"/>
		</g>
	</g>
	<g>
		<g>
			<path class="st1" d="M776.5,51.6L763,49.8l-19.6-11.3c-0.2-0.1-0.4-0.2-0.6-0.2c-0.5-0.1-1,0.1-1.4,0.6c-0.5,0.6-0.4,1.4,0.1,2
				l6.3,7l-10.9-1.5c-1.2-2.7-2.3-5.4-3.3-7.8c-1.5-3.8-3.1-5.6-4.7-5.5c-0.2,0-0.3,0.1-0.5,0.1c-1.3,0.4-2,2-2,2.7l-1.1,14.2
				c-0.1,0.5,0,0.9,0.2,1.2c0.4,0.6,1.1,0.6,1.8,0.7l2.6,0.4l13.1,3.8l-5.7,3.6c-0.6,0.4-0.9,1.2-0.6,1.8c0.2,0.5,0.7,0.8,1.2,0.9
				c0.2,0,0.4,0,0.6-0.1l12.1-3.1c0.3,0.8,1,1.4,1.9,1.5c0.3,0.1,0.6,0,0.9-0.1c0.2,0.1,0.5,0.2,0.8,0.2c1.2,0.2,2.3-0.7,2.6-1.8
				c0.4-0.2,0.7-0.5,0.9-0.9l16.6,2.3c-0.1,0.2-0.2,0.5-0.2,0.7c-0.1,0.6,0.1,1.2,0.4,1.7s0.9,0.8,1.5,0.9c0.1,0,0.3,0,0.4,0
				c0.2,0,0.4-0.1,0.6-0.1c0.9-0.2,1.5-1,1.7-1.9c0.1-0.2,0-0.6-0.1-0.8l1.8,0.2c0.4,0.1,0.7,0.1,1,0.2c0.8,0.1,1.5,0.2,2.2,0.2
				c0.2,0,0.5-0.1,0.7-0.1c0.9-0.2,1.5-1,1.6-2.3V59C785.2,55.3,779.2,52.1,776.5,51.6L776.5,51.6z"/>
		</g>
		<g>
			<rect x="726.5" y="70.3" class="st1" width="58.5" height="1.2"/>
		</g>
	</g>
</g>
<text data="salida1" transform="matrix(1 0 0 1 65.5654 29.8763)" class="st2 st3 st4">CIJ</text>
<text data="lineaVuelo1" transform="matrix(1 0 0 1 417.6066 29.8763)" class="st2 st3 st4">OB405</text>
<text data="operado1" transform="matrix(1 0 0 1 410.4587 48.3028)" class="st2 st3 st5">
	<tspan x="0" y="0" class="st0 st3 st6">Operado por:</tspan>
	<tspan  x="22" y="18" class="st0 st3 st6">boa</tspan>
</text>
<text transform="matrix(1 0 0 1 33.5726 134.7056)" class="st7">  </text>
<text transform="matrix(1 0 0 1 118.4091 134.7056)" class="st7">  </text>
<text transform="matrix(1 0 0 1 122.8962 152.7056)" class="st7"> </text>
<text data="horaSalida1" transform="matrix(1 0 0 1 54.3909 120.8765)" class="st2 st3 st4">11:35</text>
<text data="horaLlegada1" transform="matrix(1 0 0 1 786.63 120.8765)" class="st2 st3 st4">12:35</text>
<text data="llegada1" transform="matrix(1 0 0 1 794.9573 29.8763)" class="st2 st3 st4">LPB</text>
<line class="st8" x1="75.8" y1="191.1" x2="808" y2="191.1"/>
<g>
	<text data="duracion1" transform="matrix(1 0 0 1 434.6813 183.1512)" class="st2 st3 st5">01:00</text>
	<g>
		<path class="st1" d="M428,177.2h-2.8v-3.3c0-0.3-0.2-0.5-0.5-0.5s-0.5,0.2-0.5,0.5v3.7c0,0.3,0.2,0.5,0.5,0.5h3.3
			c0.3,0,0.5-0.2,0.5-0.5C428.5,177.4,428.3,177.2,428,177.2L428,177.2z"/>
		<path class="st1" d="M424.7,170.2c-4.1,0-7.5,3.3-7.5,7.5c0,4.1,3.3,7.5,7.5,7.5c4.1,0,7.5-3.3,7.5-7.5S428.9,170.2,424.7,170.2z
			 M424.7,183.7c-3.3,0-6.1-2.7-6.1-6.1c0-3.3,2.7-6.1,6.1-6.1c3.3,0,6.1,2.7,6.1,6.1S428.1,183.7,424.7,183.7z"/>
	</g>
</g>
<text data="aeropuertoSalida1" transform="matrix(1 0 0 1 17.1423 140.8712)"></text>
<text data="aeropuertoLlegada1" transform="matrix(1 0 0 1 720.3429 140.8712)"></text>
</svg>
