<?xml version="1.0" encoding="utf-8"?>
<!-- Generator: Adobe Illustrator 19.2.1, SVG Export Plug-In . SVG Version: 6.00 Build 0)  -->
<svg version="1.1" xmlns="http://www.w3.org/2000/svg" xmlns:xlink="http://www.w3.org/1999/xlink" x="0px" y="0px"
	 viewBox="0 0 1094.1 201" style="enable-background:new 0 0 1094.1 201;" xml:space="preserve">
<style type="text/css">
	.tres .st0{fill:#FFFFFF;}
	.tres .st1{fill:none;}
	.tres .st2{fill:#2C4465;}
	.tres .st4{font-size:16px;}
	.tres .st5{enable-background:new    ;}
	.tres .st6{font-size:15px;}
	.tres .st8{font-size:12px;}
	.tres .st9{fill:none;stroke:#FFFFFF;stroke-width:0.25;stroke-miterlimit:10;}
	.tres .st10{fill:#686868;}
</style>
<g id="vuelo1">
	<g>
		<path class="st0" d="M90.2,99.2c-9.1,0-16.4-7.4-16.4-16.4c0-9.1,7.4-16.4,16.4-16.4c9.1,0,16.4,7.4,16.4,16.4
			C106.6,91.9,99.2,99.2,90.2,99.2z M90.2,70.1c-7,0-12.7,5.7-12.7,12.7s5.7,12.7,12.7,12.7s12.7-5.7,12.7-12.7S97.2,70.1,90.2,70.1
			z"/>
	</g>
	<g>
		<rect x="107" y="81.2" class="st0" width="180" height="3.7"/>
	</g>
	<g>
		<g>
			<line class="st1" x1="121.7" y1="60.5" x2="129.3" y2="60.5"/>
		</g>
		<g>
			<line class="st1" x1="125.6" y1="56.7" x2="125.6" y2="64.3"/>
		</g>
		<g>
			<path class="st2" d="M137.2,47.6l-8.1-0.4c-0.1,0-0.2,0-0.3,0.1l-4.4,2.4c-0.1,0.1-0.3,0.2-0.3,0.3c-0.1,0.1,0,0.3,0.1,0.4
				l2.3,2.8c0.1,0,0.1-0.1,0.1-0.1L137.2,47.6z"/>
		</g>
		<g>
			<path class="st2" d="M153.3,44.7L153.3,44.7c-0.3-0.6-1-1.4-2.7-1.4c-1.7,0-3.6,0.8-3.7,0.8c-4.6,1.8-25.9,13.1-25.9,13.1
				l-5.1-2.7c-0.1-0.1-0.3-0.1-0.5,0l-3.6,1.9c-0.1,0.1-0.3,0.2-0.3,0.4c0,0.1,0.1,0.3,0.1,0.5l8.8,7.6c0.1,0.1,0.4,0.1,0.6,0.1
				l8.6-4.4l1.3,9.2c0.1,0.1,0.1,0.3,0.3,0.4c0.1,0.1,0.1,0.1,0.3,0.1c0.1,0,0.1,0,0.3-0.1c1-0.5,1.5-0.8,2.1-1.1
				c0.5-0.3,1.2-0.6,2.1-1.2c0.1-0.1,0.1-0.1,0.2-0.3l6.1-13.6l6.3-3.3C151.4,49,154.2,46.8,153.3,44.7L153.3,44.7z"/>
		</g>
	</g>
	<g>
		<rect x="112.9" y="72.6" class="st2" width="58.5" height="1.2"/>
	</g>
	<text data="salida1" transform="matrix(1 0 0 1 83.1106 32.1884)" class="st0 st3 st4">CIJ</text>
	<text data="aeropuertoSalida1" transform="matrix(1 0 0 1 40.5277 137.0176)" class="st5"><tspan x="0" y="0" class="st0 st3 st6">Aero</tspan><tspan x="7.6" y="18" class="st0 st3 st6">1</tspan></text>
	<text data="aeropuertoLlegada1" transform="matrix(1 0 0 1 220.1477 137.0176)" class="st5"><tspan x="0" y="0" class="st0 st3 st6">Aero</tspan><tspan x="7.6" y="18" class="st0 st3 st6">1</tspan></text>
	<text transform="matrix(1 0 0 1 48.0159 137.0177)" class="st7 st8">  </text>
	<text transform="matrix(1 0 0 1 132.8524 137.0177)" class="st7 st8">  </text>
	<text transform="matrix(1 0 0 1 137.3394 155.0177)" class="st7 st8"> </text>
	<text data="horaSalida1" transform="matrix(1 0 0 1 76.0244 123.1886)" class="st0 st3 st4">11:35</text>
	<text data="horaLlegada1" transform="matrix(1 0 0 1 289.4367 123.1886)" class="st0 st3 st4">12:35</text>
	<g>
		<path class="st0" d="M303.9,99.6c-9.1,0-16.4-7.4-16.4-16.4c0-9.1,7.4-16.4,16.4-16.4c9.1,0,16.4,7.4,16.4,16.4
			C320.3,92.3,313,99.6,303.9,99.6z M303.9,70.5c-7,0-12.7,5.7-12.7,12.7s5.7,12.7,12.7,12.7s12.7-5.7,12.7-12.7
			C316.7,76.2,310.9,70.5,303.9,70.5z"/>
	</g>
	<g>
		<g>
			<path class="st2" d="M275.4,60.6l-9.2-1.2l-13.4-7.7c-0.1-0.1-0.3-0.1-0.4-0.1c-0.3-0.1-0.7,0.1-1,0.4c-0.3,0.4-0.3,1,0.1,1.4
				l4.3,4.8l-7.5-1c-0.8-1.8-1.6-3.7-2.3-5.3c-1-2.6-2.1-3.8-3.2-3.8c-0.1,0-0.2,0.1-0.3,0.1c-0.9,0.3-1.4,1.4-1.4,1.8l-0.8,9.7
				c-0.1,0.3,0,0.6,0.1,0.8c0.3,0.4,0.8,0.4,1.2,0.5l1.8,0.3l9,2.6l-3.9,2.5c-0.4,0.3-0.6,0.8-0.4,1.2c0.1,0.3,0.5,0.5,0.8,0.6
				c0.1,0,0.3,0,0.4-0.1l8.3-2.1c0.2,0.5,0.7,1,1.3,1c0.2,0.1,0.4,0,0.6-0.1c0.1,0.1,0.3,0.1,0.5,0.1c0.8,0.1,1.6-0.5,1.8-1.2
				c0.3-0.1,0.5-0.3,0.6-0.6l11.4,1.6c-0.1,0.1-0.1,0.3-0.1,0.5c-0.1,0.4,0.1,0.8,0.3,1.2c0.2,0.3,0.6,0.5,1,0.6c0.1,0,0.2,0,0.3,0
				c0.1,0,0.3-0.1,0.4-0.1c0.6-0.1,1-0.7,1.2-1.3c0.1-0.1,0-0.4-0.1-0.5l1.2,0.1c0.3,0.1,0.5,0.1,0.7,0.1c0.5,0.1,1,0.1,1.5,0.1
				c0.1,0,0.3-0.1,0.5-0.1c0.6-0.1,1-0.7,1.1-1.6v-0.1C281.4,63.1,277.3,61,275.4,60.6L275.4,60.6z"/>
		</g>
		<g>
			<rect x="241.2" y="73.4" class="st2" width="40" height="0.8"/>
		</g>
	</g>
	<text data="llegada1" transform="matrix(1 0 0 1 294.7488 32.6004)" class="st0 st3 st4">LPB</text>
	<line class="st9" x1="90.2" y1="194.9" x2="296.5" y2="194.9"/>
	<g>
		<text data="duracion1" transform="matrix(1 0 0 1 184.5112 186.3646)" class="st0 st3 st6">01:00</text>
		<g>
			<path class="st2" d="M177.8,180.4H175v-3.3c0-0.3-0.2-0.5-0.5-0.5s-0.5,0.2-0.5,0.5v3.7c0,0.3,0.2,0.5,0.5,0.5h3.3
				c0.3,0,0.5-0.2,0.5-0.5C178.3,180.6,178.1,180.4,177.8,180.4L177.8,180.4z"/>
			<path class="st2" d="M174.5,173.4c-4.1,0-7.5,3.3-7.5,7.5c0,4.1,3.3,7.5,7.5,7.5c4.1,0,7.5-3.3,7.5-7.5S178.7,173.4,174.5,173.4z
				 M174.5,186.9c-3.3,0-6.1-2.7-6.1-6.1c0-3.3,2.7-6.1,6.1-6.1c3.3,0,6.1,2.7,6.1,6.1S177.9,186.9,174.5,186.9z"/>
		</g>
	</g>
	<text transform="matrix(1 0 0 1 397.9883 137.0177)" class="st7 st8">  </text>
	<text data="operado1" transform="matrix(1 0 0 1 165.9034 47.1123)" class="st5">
		<tspan x="0" y="0" class="st0 st3 st6">Operado por:</tspan>
		<tspan x="22" y="18" class="st0 st3 st6">BoA</tspan>
	</text>
	<text data="lineaVuelo1" transform="matrix(1 0 0 1 179.9251 32.1884)" class="st0 st3 st4">OB405</text>
</g>
<g id="transito1">
	<g id="Layer_2_2_">
		<g>
			<rect x="320.3" y="82.2" class="st10" width="107.3" height="3.2"/>
		</g>
	</g>
	<text transform="matrix(1 0 0 1 354.3722 99.5317)" class="st5"><tspan x="0" y="0" class="st0 st3 st6">Tiempo </tspan><tspan x="-7.4" y="18" class="st0 st3 st6">en Transito</tspan></text>
	<g>
		<text data="transito1" transform="matrix(1 0 0 1 353.0626 75.7252)" class="st0 st3 st6">01:00</text>
		<g>
			<path class="st2" d="M346.4,69.8h-2.8v-3.3c0-0.3-0.2-0.5-0.5-0.5s-0.5,0.2-0.5,0.5v3.7c0,0.3,0.2,0.5,0.5,0.5h3.3
				c0.3,0,0.5-0.2,0.5-0.5C346.9,70,346.7,69.8,346.4,69.8L346.4,69.8z"/>
			<path class="st2" d="M343.1,62.8c-4.1,0-7.5,3.3-7.5,7.5c0,4.1,3.3,7.5,7.5,7.5c4.1,0,7.5-3.3,7.5-7.5S347.3,62.8,343.1,62.8z
				 M343.1,76.3c-3.3,0-6.1-2.7-6.1-6.1c0-3.3,2.7-6.1,6.1-6.1c3.3,0,6.1,2.7,6.1,6.1S346.5,76.3,343.1,76.3z"/>
		</g>
	</g>
</g>
<g id="vuelo2">
	<text data="operado2" transform="matrix(1 0 0 1 515.4247 47.1123)" class="st5">
		<tspan x="0" y="0" class="st0 st3 st6">Operado por:</tspan>
		<tspan x="22" y="18" class="st0 st3 st6">BoA</tspan>
	</text>
	<g>
		<path class="st0" d="M440.2,99.2c-9.1,0-16.4-7.4-16.4-16.4c0-9.1,7.4-16.4,16.4-16.4c9.1,0,16.4,7.4,16.4,16.4
			C456.6,91.9,449.2,99.2,440.2,99.2z M440.2,70.1c-7,0-12.7,5.7-12.7,12.7s5.7,12.7,12.7,12.7s12.7-5.7,12.7-12.7
			S447.2,70.1,440.2,70.1z"/>
	</g>
	<g>
		<rect x="456.5" y="81.2" class="st0" width="180" height="3.7"/>
	</g>
	<g>
		<g>
			<g>
				<line class="st1" x1="468.1" y1="60.5" x2="475.7" y2="60.5"/>
			</g>
			<g>
				<line class="st1" x1="471.9" y1="56.7" x2="471.9" y2="64.3"/>
			</g>
			<g>
				<path class="st2" d="M483.6,47.6l-8.1-0.4c-0.1,0-0.2,0-0.3,0.1l-4.4,2.4c-0.1,0.1-0.3,0.2-0.3,0.3c-0.1,0.1,0,0.3,0.1,0.4
					l2.3,2.8c0.1,0,0.1-0.1,0.1-0.1L483.6,47.6z"/>
			</g>
			<g>
				<path class="st2" d="M499.6,44.7L499.6,44.7c-0.3-0.6-1-1.4-2.7-1.4c-1.7,0-3.6,0.8-3.7,0.8c-4.6,1.8-25.9,13.1-25.9,13.1
					l-5.1-2.7c-0.1-0.1-0.3-0.1-0.5,0l-3.6,1.9c-0.1,0.1-0.3,0.2-0.3,0.4c0,0.1,0.1,0.3,0.1,0.5l8.8,7.6c0.1,0.1,0.4,0.1,0.6,0.1
					l8.6-4.4l1.3,9.2c0.1,0.1,0.1,0.3,0.3,0.4c0.1,0.1,0.1,0.1,0.3,0.1c0.1,0,0.1,0,0.3-0.1c1-0.5,1.5-0.8,2.1-1.1s1.2-0.6,2.1-1.2
					c0.1-0.1,0.1-0.1,0.2-0.3l6.1-13.6l6.3-3.3C497.8,49,500.6,46.8,499.6,44.7L499.6,44.7z"/>
			</g>
		</g>
		<g>
			<rect x="459" y="72.9" class="st2" width="47.1" height="1"/>
		</g>
	</g>
	<text data="salida2" transform="matrix(1 0 0 1 433.083 32.1884)" class="st0 st3 st4">CIJ</text>
	<text data="lineaVuelo2" transform="matrix(1 0 0 1 529.4472 32.1884)" class="st0 st3 st4">OB405</text>
	<text data="aeropuertoSalida2" transform="matrix(1 0 0 1 390.5001 137.0176)" class="st5"><tspan x="0" y="0" class="st0 st3 st6">Aero</tspan><tspan x="7.6" y="18" class="st0 st3 st6">1</tspan></text>
	<text data="aeropuertoLlegada2" transform="matrix(1 0 0 1 570.8082 137.0176)" class="st5"><tspan x="0" y="0" class="st0 st3 st6">Aero</tspan><tspan x="7.6" y="18" class="st0 st3 st6">1</tspan></text>
	<text transform="matrix(1 0 0 1 452.9153 137.0177)" class="st7 st8">  </text>
	<text transform="matrix(1 0 0 1 556.2662 155.0177)" class="st7 st8"> </text>
	<text data="horaSalida2" transform="matrix(1 0 0 1 425.9969 123.1886)" class="st0 st3 st4">11:35</text>
	<text data="horaLlegada2" transform="matrix(1 0 0 1 640.0972 123.1886)" class="st0 st3 st4">12:35</text>
	<g>
		<path class="st0" d="M654.5,99.6c-9.1,0-16.4-7.4-16.4-16.4c0-9.1,7.4-16.4,16.4-16.4c9.1,0,16.4,7.4,16.4,16.4
			C670.9,92.3,663.6,99.6,654.5,99.6z M654.5,70.5c-7,0-12.7,5.7-12.7,12.7s5.7,12.7,12.7,12.7s12.7-5.7,12.7-12.7
			C667.3,76.2,661.5,70.5,654.5,70.5z"/>
	</g>
	<g>
		<g>
			<path class="st2" d="M628.8,60.6l-9.2-1.2l-13.4-7.7c-0.1-0.1-0.3-0.1-0.4-0.1c-0.3-0.1-0.7,0.1-1,0.4c-0.3,0.4-0.3,1,0.1,1.4
				l4.3,4.8l-7.5-1c-0.8-1.8-1.6-3.7-2.3-5.3c-1-2.6-2.1-3.8-3.2-3.8c-0.1,0-0.2,0.1-0.3,0.1c-0.9,0.3-1.4,1.4-1.4,1.8l-0.8,9.7
				c-0.1,0.3,0,0.6,0.1,0.8c0.3,0.4,0.8,0.4,1.2,0.5l1.8,0.3l9,2.6l-3.9,2.5c-0.4,0.3-0.6,0.8-0.4,1.2c0.1,0.3,0.5,0.5,0.8,0.6
				c0.1,0,0.3,0,0.4-0.1l8.3-2.1c0.2,0.5,0.7,1,1.3,1c0.2,0.1,0.4,0,0.6-0.1c0.1,0.1,0.3,0.1,0.5,0.1c0.8,0.1,1.6-0.5,1.8-1.2
				c0.3-0.1,0.5-0.3,0.6-0.6l11.4,1.6c-0.1,0.1-0.1,0.3-0.1,0.5c-0.1,0.4,0.1,0.8,0.3,1.2c0.2,0.3,0.6,0.5,1,0.6c0.1,0,0.2,0,0.3,0
				c0.1,0,0.3-0.1,0.4-0.1c0.6-0.1,1-0.7,1.2-1.3c0.1-0.1,0-0.4-0.1-0.5l1.2,0.1c0.3,0.1,0.5,0.1,0.7,0.1c0.5,0.1,1,0.1,1.5,0.1
				c0.1,0,0.3-0.1,0.5-0.1c0.6-0.1,1-0.7,1.1-1.6v-0.1C634.8,63.1,630.7,61,628.8,60.6L628.8,60.6z"/>
		</g>
		<g>
			<rect x="594.6" y="73.4" class="st2" width="40" height="0.8"/>
		</g>
	</g>
	<text data="llegada2" transform="matrix(1 0 0 1 645.4093 32.6004)" class="st0 st3 st4">LPB</text>
	<line class="st9" x1="440.2" y1="194.9" x2="654.5" y2="194.9"/>
	<g>
		<text data="duracion2" transform="matrix(1 0 0 1 546.9285 186.3646)" class="st0 st3 st6">01:00</text>
		<g>
			<path class="st2" d="M540.2,180.4h-2.8v-3.3c0-0.3-0.2-0.5-0.5-0.5s-0.5,0.2-0.5,0.5v3.7c0,0.3,0.2,0.5,0.5,0.5h3.3
				c0.3,0,0.5-0.2,0.5-0.5C540.7,180.6,540.5,180.4,540.2,180.4L540.2,180.4z"/>
			<path class="st2" d="M536.9,173.4c-4.1,0-7.5,3.3-7.5,7.5c0,4.1,3.3,7.5,7.5,7.5c4.1,0,7.5-3.3,7.5-7.5S541.1,173.4,536.9,173.4z
				 M536.9,186.9c-3.3,0-6.1-2.7-6.1-6.1c0-3.3,2.7-6.1,6.1-6.1c3.3,0,6.1,2.7,6.1,6.1S540.3,186.9,536.9,186.9z"/>
		</g>
	</g>
</g>
<g id="transito2">
	<g id="Layer_2_1_">
		<g>
			<rect x="670.9" y="82.2" class="st10" width="107.3" height="3.2"/>
		</g>
	</g>
	<text transform="matrix(1 0 0 1 705.0327 99.5317)" class="st5"><tspan x="0" y="0" class="st0 st3 st6">Tiempo </tspan><tspan x="-7.4" y="18" class="st0 st3 st6">en Transito</tspan></text>
	<g>
		<text data="transito2" transform="matrix(1 0 0 1 703.723 75.7252)" class="st0 st3 st6">01:00</text>
		<g>
			<path class="st2" d="M697,69.8h-2.8v-3.3c0-0.3-0.2-0.5-0.5-0.5s-0.5,0.2-0.5,0.5v3.7c0,0.3,0.2,0.5,0.5,0.5h3.3
				c0.3,0,0.5-0.2,0.5-0.5C697.5,70,697.3,69.8,697,69.8L697,69.8z"/>
			<path class="st2" d="M693.7,62.8c-4.1,0-7.5,3.3-7.5,7.5c0,4.1,3.3,7.5,7.5,7.5c4.1,0,7.5-3.3,7.5-7.5S697.9,62.8,693.7,62.8z
				 M693.7,76.3c-3.3,0-6.1-2.7-6.1-6.1c0-3.3,2.7-6.1,6.1-6.1c3.3,0,6.1,2.7,6.1,6.1S697.1,76.3,693.7,76.3z"/>
		</g>
	</g>
</g>
<g id="vuelo3">
	<text data="operado3" transform="matrix(1 0 0 1 869.7853 47.1123)" class="st5">
		<tspan x="0" y="0" class="st0 st3 st6">Operado por:</tspan>
		<tspan x="22" y="18" class="st0 st3 st6">BoA</tspan>
	</text>
	<g>
		<path class="st0" d="M794.6,99.2c-9.1,0-16.4-7.4-16.4-16.4c0-9.1,7.4-16.4,16.4-16.4c9.1,0,16.4,7.4,16.4,16.4
			C811,91.9,803.6,99.2,794.6,99.2z M794.6,70.1c-7,0-12.7,5.7-12.7,12.7s5.7,12.7,12.7,12.7s12.7-5.7,12.7-12.7
			S801.6,70.1,794.6,70.1z"/>
	</g>
	<g>
		<rect x="810.9" y="81.2" class="st0" width="180" height="3.7"/>
	</g>
	<g>
		<g>
			<g>
				<line class="st1" x1="826.9" y1="60.5" x2="834.5" y2="60.5"/>
			</g>
			<g>
				<line class="st1" x1="830.8" y1="56.7" x2="830.8" y2="64.3"/>
			</g>
			<g>
				<path class="st2" d="M842.4,47.6l-8.1-0.4c-0.1,0-0.2,0-0.3,0.1l-4.4,2.4c-0.1,0.1-0.3,0.2-0.3,0.3c-0.1,0.1,0,0.3,0.1,0.4
					l2.3,2.8c0.1,0,0.1-0.1,0.1-0.1L842.4,47.6z"/>
			</g>
			<g>
				<path class="st2" d="M858.5,44.7L858.5,44.7c-0.3-0.6-1-1.4-2.7-1.4c-1.7,0-3.6,0.8-3.7,0.8c-4.6,1.8-25.9,13.1-25.9,13.1
					l-5.1-2.7c-0.1-0.1-0.3-0.1-0.5,0l-3.6,1.9c-0.1,0.1-0.3,0.2-0.3,0.4c0,0.1,0.1,0.3,0.1,0.5l8.8,7.6c0.1,0.1,0.4,0.1,0.6,0.1
					l8.6-4.4l1.3,9.2c0.1,0.1,0.1,0.3,0.3,0.4c0.1,0.1,0.1,0.1,0.3,0.1c0.1,0,0.1,0,0.3-0.1c1-0.5,1.5-0.8,2.1-1.1
					c0.5-0.3,1.2-0.6,2.1-1.2c0.1-0.1,0.1-0.1,0.2-0.3l6.1-13.6l6.3-3.3C856.6,49,859.4,46.8,858.5,44.7L858.5,44.7z"/>
			</g>
		</g>
		<g>
			<rect x="817.9" y="72.9" class="st2" width="47.1" height="1"/>
		</g>
	</g>
	<text data="salida3" transform="matrix(1 0 0 1 787.4434 32.1884)" class="st0 st3 st4">CIJ</text>
	<text data="lineaVuelo3" transform="matrix(1 0 0 1 883.8076 32.1884)" class="st0 st3 st4">OB405</text>
	<text data="aeropuertoSalida3" transform="matrix(1 0 0 1 750.8606 137.0176)" class="st5"><tspan x="0" y="0" class="st0 st3 st6">Aero</tspan><tspan x="7.6" y="18" class="st0 st3 st6">1</tspan></text>
	<text data="aeropuertoLlegada3" transform="matrix(1 0 0 1 935.1686 137.0176)" class="st5"><tspan x="0" y="0" class="st0 st3 st6">Aero</tspan><tspan x="7.6" y="18" class="st0 st3 st6">1</tspan></text>
	<text transform="matrix(1 0 0 1 807.2758 137.0177)" class="st7 st8">  </text>
	<text transform="matrix(1 0 0 1 910.6266 155.0177)" class="st7 st8"> </text>
	<text data="horaSalida3" transform="matrix(1 0 0 1 780.3573 123.1886)" class="st0 st3 st4">11:35</text>
	<text data="horaLlegada3" transform="matrix(1 0 0 1 994.4577 123.1886)" class="st0 st3 st4">12:35</text>
	<g>
		<path class="st0" d="M1008.9,99.6c-9.1,0-16.4-7.4-16.4-16.4c0-9.1,7.4-16.4,16.4-16.4c9.1,0,16.4,7.4,16.4,16.4
			C1025.3,92.3,1018,99.6,1008.9,99.6z M1008.9,70.5c-7,0-12.7,5.7-12.7,12.7s5.7,12.7,12.7,12.7s12.7-5.7,12.7-12.7
			C1021.7,76.2,1015.9,70.5,1008.9,70.5z"/>
	</g>
	<g>
		<g>
			<path class="st2" d="M983.7,60.6l-9.2-1.2L961,51.6c-0.1-0.1-0.3-0.1-0.4-0.1c-0.3-0.1-0.7,0.1-1,0.4c-0.3,0.4-0.3,1,0.1,1.4
				l4.3,4.8l-7.5-1c-0.8-1.8-1.6-3.7-2.3-5.3c-1-2.6-2.1-3.8-3.2-3.8c-0.1,0-0.2,0.1-0.3,0.1c-0.9,0.3-1.4,1.4-1.4,1.8l-0.8,9.7
				c-0.1,0.3,0,0.6,0.1,0.8c0.3,0.4,0.8,0.4,1.2,0.5l1.8,0.3l9,2.6l-3.9,2.5c-0.4,0.3-0.6,0.8-0.4,1.2c0.1,0.3,0.5,0.5,0.8,0.6
				c0.1,0,0.3,0,0.4-0.1l8.3-2.1c0.2,0.5,0.7,1,1.3,1c0.2,0.1,0.4,0,0.6-0.1c0.1,0.1,0.3,0.1,0.5,0.1c0.8,0.1,1.6-0.5,1.8-1.2
				c0.3-0.1,0.5-0.3,0.6-0.6l11.4,1.6c-0.1,0.1-0.1,0.3-0.1,0.5c-0.1,0.4,0.1,0.8,0.3,1.2c0.2,0.3,0.6,0.5,1,0.6c0.1,0,0.2,0,0.3,0
				c0.1,0,0.3-0.1,0.4-0.1c0.6-0.1,1-0.7,1.2-1.3c0.1-0.1,0-0.4-0.1-0.5l1.2,0.1c0.3,0.1,0.5,0.1,0.7,0.1c0.5,0.1,1,0.1,1.5,0.1
				c0.1,0,0.3-0.1,0.5-0.1c0.6-0.1,1-0.7,1.1-1.6v-0.1C989.6,63.1,985.5,61,983.7,60.6L983.7,60.6z"/>
		</g>
		<g>
			<rect x="949.5" y="73.4" class="st2" width="40" height="0.8"/>
		</g>
	</g>
	<text data="llegada3" transform="matrix(1 0 0 1 999.7698 32.6004)" class="st0 st3 st4">LPB</text>
	<line class="st9" x1="803.5" y1="194.9" x2="1017.8" y2="194.9"/>
	<g>
		<text data="duracion3" transform="matrix(1 0 0 1 901.2889 186.3646)" class="st0 st3 st6">01:00</text>
		<g>
			<path class="st2" d="M894.6,180.4h-2.8v-3.3c0-0.3-0.2-0.5-0.5-0.5s-0.5,0.2-0.5,0.5v3.7c0,0.3,0.2,0.5,0.5,0.5h3.3
				c0.3,0,0.5-0.2,0.5-0.5C895.1,180.6,894.9,180.4,894.6,180.4L894.6,180.4z"/>
			<path class="st2" d="M891.3,173.4c-4.1,0-7.5,3.3-7.5,7.5c0,4.1,3.3,7.5,7.5,7.5c4.1,0,7.5-3.3,7.5-7.5S895.5,173.4,891.3,173.4z
				 M891.3,186.9c-3.3,0-6.1-2.7-6.1-6.1c0-3.3,2.7-6.1,6.1-6.1c3.3,0,6.1,2.7,6.1,6.1S894.7,186.9,891.3,186.9z"/>
		</g>
	</g>
</g>
</svg>
