<?xml version="1.0" encoding="utf-8"?>
<!-- Generator: Adobe Illustrator 19.2.1, SVG Export Plug-In . SVG Version: 6.00 Build 0)  -->
<svg version="1.1" xmlns="http://www.w3.org/2000/svg" xmlns:xlink="http://www.w3.org/1999/xlink" x="0px" y="0px"
	 viewBox="0 0 880 201" style="enable-background:new 0 0 880 201;" xml:space="preserve">
<style type="text/css">
	.dos .st0{fill:#FFFFFF;}
	.dos .st1{fill:none;}
	.dos .st2{fill:#2C4465;}
	.dos .st4{font-size:16px;}
	.dos .st5{enable-background:new    ;}
	.dos .st6{font-size:15px;}
	.dos .st8{font-size:12px;}
	.dos .st9{fill:none;stroke:#FFFFFF;stroke-width:0.25;stroke-miterlimit:10;}
	.dos .st10{fill:#686868;}
</style>
<g id="vuelo1">
	<g>
		<path class="st0" d="M90.2,96.4c-9.1,0-16.4-7.4-16.4-16.4c0-9.1,7.4-16.4,16.4-16.4c9.1,0,16.4,7.4,16.4,16.4
			C106.6,89.1,99.2,96.4,90.2,96.4z M90.2,67.3c-7,0-12.7,5.7-12.7,12.7s5.7,12.7,12.7,12.7S102.9,87,102.9,80S97.2,67.3,90.2,67.3z
			"/>
	</g>
	<g>
		<rect x="104.9" y="78.4" class="st0" width="251" height="3.7"/>
	</g>
	<g>
		<g>
			<line class="st1" x1="124.2" y1="54.4" x2="133.6" y2="54.4"/>
		</g>
		<g>
			<line class="st1" x1="129" y1="49.7" x2="129" y2="59.1"/>
		</g>
		<g>
			<path class="st2" d="M143.4,38.4l-10.1-0.5c-0.1,0-0.3,0-0.3,0.1l-5.5,3c-0.2,0.1-0.3,0.3-0.3,0.4c-0.1,0.2,0,0.3,0.2,0.5
				l2.9,3.5c0.1,0,0.1-0.1,0.1-0.1L143.4,38.4z"/>
		</g>
		<g>
			<path class="st2" d="M163.4,34.8L163.4,34.8c-0.4-0.8-1.3-1.7-3.3-1.7c-2.1,0-4.4,1-4.6,1c-5.7,2.2-32.2,16.2-32.2,16.2l-6.4-3.4
				c-0.2-0.1-0.4-0.1-0.6,0l-4.4,2.4c-0.2,0.1-0.3,0.3-0.3,0.5c0,0.2,0.1,0.4,0.2,0.6l11,9.4c0.2,0.2,0.5,0.2,0.8,0.1l10.7-5.5
				l1.6,11.4c0.1,0.2,0.2,0.3,0.3,0.5c0.1,0.1,0.2,0.1,0.3,0.1c0.1,0,0.2,0,0.3-0.1c1.2-0.6,1.9-1,2.5-1.4c0.7-0.3,1.4-0.8,2.5-1.4
				c0.1-0.1,0.2-0.2,0.3-0.3l7.6-16.9l7.8-4.1C161.1,40.2,164.5,37.4,163.4,34.8L163.4,34.8z"/>
		</g>
	</g>
	<g>
		<rect x="112.9" y="69.8" class="st2" width="58.5" height="1.2"/>
	</g>
	<text data="salida1" transform="matrix(1 0 0 1 83.1104 29.4263)" class="st0 st3 st4">CIJ</text>
	<text data="lineaVuelo1" transform="matrix(1 0 0 1 213.3841 29.4263)" class="st0 st3 st4">OB405</text>
	<text data="aeropuertoSalida1" transform="matrix(1 0 0 1 39.5276 134.2554)" class="st5"></text>
	<text data="aeropuertoLlegada1" transform="matrix(1 0 0 1 252.1018 134.2554)" class="st5"></text>
	<text transform="matrix(1 0 0 1 48.0157 134.2556)" class="st7 st8">  </text>
	<text transform="matrix(1 0 0 1 132.8522 134.2556)" class="st7 st8">  </text>
	<text transform="matrix(1 0 0 1 137.3393 152.2556)" class="st7 st8"> </text>
	<text data="horaSalida1" transform="matrix(1 0 0 1 76.0243 120.4265)" class="st0 st3 st4">11:35</text>
	<text data="horaLlegada1" transform="matrix(1 0 0 1 358.3909 120.4265)" class="st0 st3 st4">12:35</text>
	<g>
		<path class="st0" d="M372.8,96.9c-9.1,0-16.4-7.4-16.4-16.4c0-9.1,7.4-16.4,16.4-16.4c9.1,0,16.4,7.4,16.4,16.4
			C389.2,89.6,381.9,96.9,372.8,96.9z M372.8,67.8c-7,0-12.7,5.7-12.7,12.7s5.7,12.7,12.7,12.7s12.7-5.7,12.7-12.7
			C385.6,73.5,379.8,67.8,372.8,67.8z"/>
	</g>
	<g>
		<g>
			<path class="st2" d="M343,54.6L331.5,53l-16.6-9.6c-0.2-0.1-0.3-0.2-0.5-0.2c-0.4-0.1-0.8,0.1-1.2,0.5c-0.4,0.5-0.3,1.2,0.1,1.7
				l5.4,5.9l-9.3-1.3c-1-2.3-2-4.6-2.8-6.6c-1.3-3.2-2.6-4.8-4-4.7c-0.2,0-0.3,0.1-0.4,0.1c-1.1,0.3-1.7,1.7-1.7,2.3l-0.9,12.1
				c-0.1,0.4,0,0.8,0.2,1c0.3,0.5,0.9,0.5,1.5,0.6l2.2,0.3l11.1,3.2l-4.8,3.1c-0.5,0.3-0.8,1-0.5,1.5c0.2,0.4,0.6,0.7,1,0.8
				c0.2,0,0.3,0,0.5-0.1l10.3-2.6c0.3,0.7,0.8,1.2,1.6,1.3c0.3,0.1,0.5,0,0.8-0.1c0.2,0.1,0.4,0.2,0.7,0.2c1,0.2,2-0.6,2.2-1.5
				c0.3-0.2,0.6-0.4,0.8-0.8l14.1,2c-0.1,0.2-0.2,0.4-0.2,0.6c-0.1,0.5,0.1,1,0.3,1.4c0.3,0.4,0.8,0.7,1.3,0.8c0.1,0,0.3,0,0.3,0
				c0.2,0,0.3-0.1,0.5-0.1c0.8-0.2,1.3-0.8,1.4-1.6c0.1-0.2,0-0.5-0.1-0.7l1.5,0.2c0.3,0.1,0.6,0.1,0.8,0.2c0.7,0.1,1.3,0.2,1.9,0.2
				c0.2,0,0.4-0.1,0.6-0.1c0.8-0.2,1.3-0.8,1.4-2v-0.2C350.4,57.7,345.3,55,343,54.6L343,54.6z"/>
		</g>
		<g>
			<rect x="300.5" y="70.4" class="st2" width="49.7" height="1"/>
		</g>
	</g>
	<text data="llegada1" transform="matrix(1 0 0 1 363.7029 29.8382)" class="st0 st3 st4">LPB</text>
	<line class="st9" x1="90.2" y1="190.7" x2="372.8" y2="190.7"/>
	<g>
		<text data="duracion1" transform="matrix(1 0 0 1 215.4611 183.6024)" class="st0 st3 st6">01:00</text>
		<g>
			<path class="st2" d="M208.8,177.7H206v-3.3c0-0.3-0.2-0.5-0.5-0.5s-0.5,0.2-0.5,0.5v3.7c0,0.3,0.2,0.5,0.5,0.5h3.3
				c0.3,0,0.5-0.2,0.5-0.5C209.3,177.9,209.1,177.7,208.8,177.7L208.8,177.7z"/>
			<path class="st2" d="M205.5,170.7c-4.1,0-7.5,3.3-7.5,7.5c0,4.1,3.3,7.5,7.5,7.5c4.1,0,7.5-3.3,7.5-7.5S209.7,170.7,205.5,170.7z
				 M205.5,184.2c-3.3,0-6.1-2.7-6.1-6.1c0-3.3,2.7-6.1,6.1-6.1c3.3,0,6.1,2.7,6.1,6.1S208.9,184.2,205.5,184.2z"/>
		</g>
	</g>
	<text transform="matrix(1 0 0 1 466.9424 134.2556)" class="st7 st8">  </text>
	<text data="operado1" transform="matrix(1 0 0 1 200.4526 94.3501)" class="st5">
		<tspan x="0" y="0" class="st0 st3 st6">Operado por:</tspan>
		<tspan  x="22" y="18" class="st0 st3 st6">boa</tspan></text>
</g>
<g id="transito1">
	<g id="Layer_2_1_">
		<g>
			<rect x="389.2" y="79.5" class="st10" width="107.3" height="3.2"/>
		</g>
	</g>
	<text transform="matrix(1 0 0 1 423.3263 96.7695)" class="st5"><tspan x="0" y="0" class="st0 st3 st6">Tiempo </tspan><tspan x="-7.4" y="18" class="st0 st3 st6">en Transito</tspan></text>
	<g>
		<text data="transito1" transform="matrix(1 0 0 1 422.0167 72.9631)" class="st0 st3 st6">01:00</text>
		<g>
			<path class="st2" d="M415.3,67h-2.8v-3.3c0-0.3-0.2-0.5-0.5-0.5s-0.5,0.2-0.5,0.5v3.7c0,0.3,0.2,0.5,0.5,0.5h3.3
				c0.3,0,0.5-0.2,0.5-0.5C415.8,67.2,415.6,67,415.3,67L415.3,67z"/>
			<path class="st2" d="M412,60c-4.1,0-7.5,3.3-7.5,7.5c0,4.1,3.3,7.5,7.5,7.5c4.1,0,7.5-3.3,7.5-7.5S416.2,60,412,60z M412,73.5
				c-3.3,0-6.1-2.7-6.1-6.1c0-3.3,2.7-6.1,6.1-6.1c3.3,0,6.1,2.7,6.1,6.1S415.4,73.5,412,73.5z"/>
		</g>
	</g>
</g>
<g id="vuelo2">
	<text data="operado2" transform="matrix(1 0 0 1 619.3799 94.3501)" class="st5">
		<tspan x="0" y="0" class="st0 st3 st6">Operado por:</tspan>
		<tspan x="22" y="18" class="st0 st3 st6">boa</tspan></text>
	<g>
		<path class="st0" d="M509.2,96.4c-9.1,0-16.4-7.4-16.4-16.4c0-9.1,7.4-16.4,16.4-16.4c9.1,0,16.4,7.4,16.4,16.4
			C525.6,89.1,518.2,96.4,509.2,96.4z M509.2,67.3c-7,0-12.7,5.7-12.7,12.7s5.7,12.7,12.7,12.7c7,0,12.7-5.7,12.7-12.7
			S516.2,67.3,509.2,67.3z"/>
	</g>
	<g>
		<rect x="523.9" y="78.4" class="st0" width="251" height="3.7"/>
	</g>
	<g>
		<g>
			<line class="st1" x1="543.1" y1="54.4" x2="552.6" y2="54.4"/>
		</g>
		<g>
			<line class="st1" x1="547.9" y1="49.7" x2="547.9" y2="59.1"/>
		</g>
		<g>
			<path class="st2" d="M562.3,38.4l-10.1-0.5c-0.1,0-0.3,0-0.3,0.1l-5.5,3c-0.2,0.1-0.3,0.3-0.3,0.4c-0.1,0.2,0,0.3,0.2,0.5
				l2.9,3.5c0.1,0,0.1-0.1,0.1-0.1L562.3,38.4z"/>
		</g>
		<g>
			<path class="st2" d="M582.3,34.8L582.3,34.8c-0.4-0.8-1.3-1.7-3.3-1.7c-2.1,0-4.4,1-4.6,1c-5.7,2.2-32.2,16.2-32.2,16.2l-6.4-3.4
				c-0.2-0.1-0.4-0.1-0.6,0l-4.4,2.4c-0.2,0.1-0.3,0.3-0.3,0.5c0,0.2,0.1,0.4,0.2,0.6l11,9.4c0.2,0.2,0.5,0.2,0.8,0.1l10.7-5.5
				l1.6,11.4c0.1,0.2,0.2,0.3,0.3,0.5c0.1,0.1,0.2,0.1,0.3,0.1c0.1,0,0.2,0,0.3-0.1c1.2-0.6,1.9-1,2.5-1.4s1.4-0.8,2.5-1.4
				c0.1-0.1,0.2-0.2,0.3-0.3l7.6-16.9l7.8-4.1C580,40.2,583.5,37.4,582.3,34.8L582.3,34.8z"/>
		</g>
	</g>
	<g>
		<rect x="531.9" y="69.8" class="st2" width="58.5" height="1.2"/>
	</g>
	<text data="salida2" transform="matrix(1 0 0 1 502.0371 29.4263)" class="st0 st3 st4">CIJ</text>
	<text data="lineaVuelo2" transform="matrix(1 0 0 1 632.3108 29.4263)" class="st0 st3 st4">OB405</text>
	<text data="aeropuertoSalida2" transform="matrix(1 0 0 1 498.4543 134.2554)" class="st5"><tspan x="0" y="0" class="st0 st3 st6">Aero</tspan><tspan x="7.6" y="18" class="st0 st3 st6">1</tspan></text>
	<text data="aeropuertoLlegada2" transform="matrix(1 0 0 1 721.0285 134.2554)" class="st5"><tspan x="0" y="0" class="st0 st3 st6">Aero</tspan><tspan x="7.6" y="18" class="st0 st3 st6">1</tspan></text>
	<text transform="matrix(1 0 0 1 551.7789 134.2556)" class="st7 st8">  </text>
	<text transform="matrix(1 0 0 1 556.2661 152.2556)" class="st7 st8"> </text>
	<text data="horaSalida2" transform="matrix(1 0 0 1 494.951 120.4265)" class="st0 st3 st4">11:35</text>
	<text data="horaLlegada2" transform="matrix(1 0 0 1 777.3176 120.4265)" class="st0 st3 st4">12:35</text>
	<g>
		<path class="st0" d="M791.7,96.9c-9.1,0-16.4-7.4-16.4-16.4c0-9.1,7.4-16.4,16.4-16.4c9.1,0,16.4,7.4,16.4,16.4
			C808.1,89.6,800.8,96.9,791.7,96.9z M791.7,67.8c-7,0-12.7,5.7-12.7,12.7s5.7,12.7,12.7,12.7s12.7-5.7,12.7-12.7
			C804.5,73.5,798.7,67.8,791.7,67.8z"/>
	</g>
	<g>
		<g>
			<path class="st2" d="M761.9,54.6L750.5,53l-16.6-9.6c-0.2-0.1-0.3-0.2-0.5-0.2c-0.4-0.1-0.8,0.1-1.2,0.5
				c-0.4,0.5-0.3,1.2,0.1,1.7l5.4,5.9l-9.3-1.3c-1-2.3-2-4.6-2.8-6.6c-1.3-3.2-2.6-4.8-4-4.7c-0.2,0-0.3,0.1-0.4,0.1
				c-1.1,0.3-1.7,1.7-1.7,2.3l-0.9,12.1c-0.1,0.4,0,0.8,0.2,1c0.3,0.5,0.9,0.5,1.5,0.6l2.2,0.3l11.1,3.2l-4.8,3.1
				c-0.5,0.3-0.8,1-0.5,1.5c0.2,0.4,0.6,0.7,1,0.8c0.2,0,0.3,0,0.5-0.1l10.3-2.6c0.3,0.7,0.8,1.2,1.6,1.3c0.3,0.1,0.5,0,0.8-0.1
				c0.2,0.1,0.4,0.2,0.7,0.2c1,0.2,2-0.6,2.2-1.5c0.3-0.2,0.6-0.4,0.8-0.8l14.1,2c-0.1,0.2-0.2,0.4-0.2,0.6c-0.1,0.5,0.1,1,0.3,1.4
				c0.3,0.4,0.8,0.7,1.3,0.8c0.1,0,0.3,0,0.3,0c0.2,0,0.3-0.1,0.5-0.1c0.8-0.2,1.3-0.8,1.4-1.6c0.1-0.2,0-0.5-0.1-0.7l1.5,0.2
				c0.3,0.1,0.6,0.1,0.8,0.2c0.7,0.1,1.3,0.2,1.9,0.2c0.2,0,0.4-0.1,0.6-0.1c0.8-0.2,1.3-0.8,1.4-2v-0.2
				C769.3,57.7,764.2,55,761.9,54.6L761.9,54.6z"/>
		</g>
		<g>
			<rect x="719.5" y="70.4" class="st2" width="49.7" height="1"/>
		</g>
	</g>
	<text data="llegada2" transform="matrix(1 0 0 1 782.6296 29.8382)" class="st0 st3 st4">LPB</text>
	<line class="st9" x1="509.2" y1="190.7" x2="791.7" y2="190.7"/>
	<g>
		<text  data="duracion2" transform="matrix(1 0 0 1 634.3878 183.6024)" class="st0 st3 st6">01:00</text>
		<g>
			<path class="st2" d="M627.7,177.7h-2.8v-3.3c0-0.3-0.2-0.5-0.5-0.5s-0.5,0.2-0.5,0.5v3.7c0,0.3,0.2,0.5,0.5,0.5h3.3
				c0.3,0,0.5-0.2,0.5-0.5C628.2,177.9,628,177.7,627.7,177.7L627.7,177.7z"/>
			<path class="st2" d="M624.4,170.7c-4.1,0-7.5,3.3-7.5,7.5c0,4.1,3.3,7.5,7.5,7.5c4.1,0,7.5-3.3,7.5-7.5S628.6,170.7,624.4,170.7z
				 M624.4,184.2c-3.3,0-6.1-2.7-6.1-6.1c0-3.3,2.7-6.1,6.1-6.1c3.3,0,6.1,2.7,6.1,6.1S627.8,184.2,624.4,184.2z"/>
		</g>
	</g>
</g>
</svg>
